{"payload":{"allShortcutsEnabled":true,"fileTree":{"Day-7-Hangman":{"items":[{"name":"hangman-art.py","path":"Day-7-Hangman/hangman-art.py","contentType":"file"},{"name":"hangman.drawio","path":"Day-7-Hangman/hangman.drawio","contentType":"file"},{"name":"hangman_words.py","path":"Day-7-Hangman/hangman_words.py","contentType":"file"}],"totalCount":3},"":{"items":[{"name":"Day-7-Hangman","path":"Day-7-Hangman","contentType":"directory"},{"name":"day-3-treasure-island-game","path":"day-3-treasure-island-game","contentType":"directory"},{"name":"day-4-rock-paper-scissors","path":"day-4-rock-paper-scissors","contentType":"directory"},{"name":"day-5-password-generator","path":"day-5-password-generator","contentType":"directory"},{"name":"day-7-hangman","path":"day-7-hangman","contentType":"directory"},{"name":"README.md","path":"README.md","contentType":"file"}],"totalCount":6}},"fileTreeProcessingTime":6.395256,"foldersToFetch":[],"reducedMotionEnabled":"system","repo":{"id":644435463,"defaultBranch":"main","name":"100-days-of-code-python-2023","ownerLogin":"rosustefan","currentUserCanPush":true,"isFork":false,"isEmpty":false,"createdAt":"2023-05-23T17:06:02.000+03:00","ownerAvatar":"https://avatars.githubusercontent.com/u/44987333?v=4","public":true,"private":false},"refInfo":{"name":"main","listCacheKey":"v0:1684850763.542073","canEdit":true,"refType":"branch","currentOid":"9c2773d9a40f0caa6c6700389daf0168d4a92d3c"},"path":"Day-7-Hangman/hangman.drawio","currentUser":{"id":44987333,"login":"rosustefan","userEmail":"rosu.stefan@hotmail.com"},"blob":{"rawBlob":"<mxfile host=\"app.diagrams.net\" modified=\"2023-05-23T14:15:30.000Z\" agent=\"Mozilla/5.0 (X11; Ubuntu; Linux x86_64; rv:109.0) Gecko/20100101 Firefox/113.0\" etag=\"krLUqsIDmNuma35uf-1j\" version=\"21.3.3\" type=\"github\">\n  <diagram name=\"Page-1\" id=\"g_6lmg3lHrvDkqRM22pA\">\n    <mxGraphModel dx=\"806\" dy=\"454\" grid=\"1\" gridSize=\"10\" guides=\"1\" tooltips=\"1\" connect=\"1\" arrows=\"1\" fold=\"1\" page=\"1\" pageScale=\"1\" pageWidth=\"850\" pageHeight=\"1100\" math=\"0\" shadow=\"0\">\n      <root>\n        <mxCell id=\"0\" />\n        <mxCell id=\"1\" parent=\"0\" />\n        <mxCell id=\"PxrWiQvhpTHwRh7bZ3xM-5\" style=\"edgeStyle=orthogonalEdgeStyle;rounded=0;orthogonalLoop=1;jettySize=auto;html=1;entryX=0.5;entryY=0;entryDx=0;entryDy=0;\" parent=\"1\" source=\"PxrWiQvhpTHwRh7bZ3xM-2\" target=\"PxrWiQvhpTHwRh7bZ3xM-4\" edge=\"1\">\n          <mxGeometry relative=\"1\" as=\"geometry\" />\n        </mxCell>\n        <mxCell id=\"PxrWiQvhpTHwRh7bZ3xM-2\" value=\"Start\" style=\"rounded=1;whiteSpace=wrap;html=1;\" parent=\"1\" vertex=\"1\">\n          <mxGeometry x=\"340\" y=\"50\" width=\"120\" height=\"60\" as=\"geometry\" />\n        </mxCell>\n        <mxCell id=\"PxrWiQvhpTHwRh7bZ3xM-7\" style=\"edgeStyle=orthogonalEdgeStyle;rounded=0;orthogonalLoop=1;jettySize=auto;html=1;entryX=0.5;entryY=0;entryDx=0;entryDy=0;\" parent=\"1\" source=\"PxrWiQvhpTHwRh7bZ3xM-4\" target=\"PxrWiQvhpTHwRh7bZ3xM-6\" edge=\"1\">\n          <mxGeometry relative=\"1\" as=\"geometry\" />\n        </mxCell>\n        <mxCell id=\"PxrWiQvhpTHwRh7bZ3xM-4\" value=\"Generate a random word\" style=\"rounded=1;whiteSpace=wrap;html=1;\" parent=\"1\" vertex=\"1\">\n          <mxGeometry x=\"340\" y=\"160\" width=\"120\" height=\"60\" as=\"geometry\" />\n        </mxCell>\n        <mxCell id=\"PxrWiQvhpTHwRh7bZ3xM-9\" style=\"edgeStyle=orthogonalEdgeStyle;rounded=0;orthogonalLoop=1;jettySize=auto;html=1;entryX=0.5;entryY=0;entryDx=0;entryDy=0;\" parent=\"1\" source=\"PxrWiQvhpTHwRh7bZ3xM-6\" target=\"PxrWiQvhpTHwRh7bZ3xM-8\" edge=\"1\">\n          <mxGeometry relative=\"1\" as=\"geometry\" />\n        </mxCell>\n        <mxCell id=\"PxrWiQvhpTHwRh7bZ3xM-6\" value=\"Generate placeholder spaces for the nr. of letters in our word\" style=\"rounded=1;whiteSpace=wrap;html=1;\" parent=\"1\" vertex=\"1\">\n          <mxGeometry x=\"340\" y=\"260\" width=\"120\" height=\"60\" as=\"geometry\" />\n        </mxCell>\n        <mxCell id=\"PxrWiQvhpTHwRh7bZ3xM-13\" style=\"edgeStyle=orthogonalEdgeStyle;rounded=0;orthogonalLoop=1;jettySize=auto;html=1;\" parent=\"1\" source=\"PxrWiQvhpTHwRh7bZ3xM-8\" target=\"PxrWiQvhpTHwRh7bZ3xM-10\" edge=\"1\">\n          <mxGeometry relative=\"1\" as=\"geometry\" />\n        </mxCell>\n        <mxCell id=\"PxrWiQvhpTHwRh7bZ3xM-8\" value=\"Ask the user to guess a letter in the word\" style=\"rounded=1;whiteSpace=wrap;html=1;\" parent=\"1\" vertex=\"1\">\n          <mxGeometry x=\"340\" y=\"360\" width=\"120\" height=\"60\" as=\"geometry\" />\n        </mxCell>\n        <mxCell id=\"PxrWiQvhpTHwRh7bZ3xM-15\" style=\"edgeStyle=orthogonalEdgeStyle;rounded=0;orthogonalLoop=1;jettySize=auto;html=1;entryX=0.5;entryY=0;entryDx=0;entryDy=0;\" parent=\"1\" source=\"PxrWiQvhpTHwRh7bZ3xM-10\" target=\"PxrWiQvhpTHwRh7bZ3xM-14\" edge=\"1\">\n          <mxGeometry relative=\"1\" as=\"geometry\" />\n        </mxCell>\n        <mxCell id=\"PxrWiQvhpTHwRh7bZ3xM-19\" style=\"edgeStyle=orthogonalEdgeStyle;rounded=0;orthogonalLoop=1;jettySize=auto;html=1;entryX=0.5;entryY=0;entryDx=0;entryDy=0;\" parent=\"1\" source=\"PxrWiQvhpTHwRh7bZ3xM-10\" target=\"PxrWiQvhpTHwRh7bZ3xM-16\" edge=\"1\">\n          <mxGeometry relative=\"1\" as=\"geometry\" />\n        </mxCell>\n        <mxCell id=\"PxrWiQvhpTHwRh7bZ3xM-10\" value=\"&lt;div&gt;Is the guessed letter &lt;br&gt;&lt;/div&gt;&lt;div&gt;in the word?&lt;/div&gt;\" style=\"rhombus;whiteSpace=wrap;html=1;\" parent=\"1\" vertex=\"1\">\n          <mxGeometry x=\"320\" y=\"460\" width=\"160\" height=\"140\" as=\"geometry\" />\n        </mxCell>\n        <mxCell id=\"PxrWiQvhpTHwRh7bZ3xM-21\" style=\"edgeStyle=orthogonalEdgeStyle;rounded=0;orthogonalLoop=1;jettySize=auto;html=1;entryX=0;entryY=0.5;entryDx=0;entryDy=0;\" parent=\"1\" source=\"PxrWiQvhpTHwRh7bZ3xM-11\" target=\"PxrWiQvhpTHwRh7bZ3xM-8\" edge=\"1\">\n          <mxGeometry relative=\"1\" as=\"geometry\">\n            <Array as=\"points\">\n              <mxPoint x=\"70\" y=\"750\" />\n              <mxPoint x=\"70\" y=\"390\" />\n            </Array>\n          </mxGeometry>\n        </mxCell>\n        <mxCell id=\"PxrWiQvhpTHwRh7bZ3xM-26\" style=\"edgeStyle=orthogonalEdgeStyle;rounded=0;orthogonalLoop=1;jettySize=auto;html=1;\" parent=\"1\" source=\"PxrWiQvhpTHwRh7bZ3xM-11\" edge=\"1\">\n          <mxGeometry relative=\"1\" as=\"geometry\">\n            <mxPoint x=\"175\" y=\"870\" as=\"targetPoint\" />\n          </mxGeometry>\n        </mxCell>\n        <mxCell id=\"PxrWiQvhpTHwRh7bZ3xM-11\" value=\"&lt;div&gt;Are all the blank &lt;br&gt;&lt;/div&gt;&lt;div&gt;spaces filled?&lt;br&gt;&lt;/div&gt;\" style=\"rhombus;whiteSpace=wrap;html=1;\" parent=\"1\" vertex=\"1\">\n          <mxGeometry x=\"95\" y=\"680\" width=\"160\" height=\"140\" as=\"geometry\" />\n        </mxCell>\n        <mxCell id=\"PxrWiQvhpTHwRh7bZ3xM-24\" style=\"edgeStyle=orthogonalEdgeStyle;rounded=0;orthogonalLoop=1;jettySize=auto;html=1;entryX=1;entryY=0.5;entryDx=0;entryDy=0;\" parent=\"1\" source=\"PxrWiQvhpTHwRh7bZ3xM-12\" target=\"PxrWiQvhpTHwRh7bZ3xM-8\" edge=\"1\">\n          <mxGeometry relative=\"1\" as=\"geometry\">\n            <Array as=\"points\">\n              <mxPoint x=\"710\" y=\"750\" />\n              <mxPoint x=\"710\" y=\"390\" />\n            </Array>\n          </mxGeometry>\n        </mxCell>\n        <mxCell id=\"PxrWiQvhpTHwRh7bZ3xM-25\" style=\"edgeStyle=orthogonalEdgeStyle;rounded=0;orthogonalLoop=1;jettySize=auto;html=1;\" parent=\"1\" source=\"PxrWiQvhpTHwRh7bZ3xM-12\" edge=\"1\">\n          <mxGeometry relative=\"1\" as=\"geometry\">\n            <mxPoint x=\"600\" y=\"870\" as=\"targetPoint\" />\n          </mxGeometry>\n        </mxCell>\n        <mxCell id=\"PxrWiQvhpTHwRh7bZ3xM-12\" value=\"&lt;div&gt;Have they run out&lt;/div&gt;&lt;div&gt;of lives?&lt;br&gt;&lt;/div&gt;\" style=\"rhombus;whiteSpace=wrap;html=1;\" parent=\"1\" vertex=\"1\">\n          <mxGeometry x=\"520\" y=\"680\" width=\"160\" height=\"140\" as=\"geometry\" />\n        </mxCell>\n        <mxCell id=\"PxrWiQvhpTHwRh7bZ3xM-17\" style=\"edgeStyle=orthogonalEdgeStyle;rounded=0;orthogonalLoop=1;jettySize=auto;html=1;\" parent=\"1\" source=\"PxrWiQvhpTHwRh7bZ3xM-14\" target=\"PxrWiQvhpTHwRh7bZ3xM-11\" edge=\"1\">\n          <mxGeometry relative=\"1\" as=\"geometry\" />\n        </mxCell>\n        <mxCell id=\"PxrWiQvhpTHwRh7bZ3xM-14\" value=\"Replace blank space(s) with the letter\" style=\"rounded=1;whiteSpace=wrap;html=1;\" parent=\"1\" vertex=\"1\">\n          <mxGeometry x=\"100\" y=\"580\" width=\"150\" height=\"60\" as=\"geometry\" />\n        </mxCell>\n        <mxCell id=\"PxrWiQvhpTHwRh7bZ3xM-18\" style=\"edgeStyle=orthogonalEdgeStyle;rounded=0;orthogonalLoop=1;jettySize=auto;html=1;entryX=0.5;entryY=0;entryDx=0;entryDy=0;\" parent=\"1\" source=\"PxrWiQvhpTHwRh7bZ3xM-16\" target=\"PxrWiQvhpTHwRh7bZ3xM-12\" edge=\"1\">\n          <mxGeometry relative=\"1\" as=\"geometry\" />\n        </mxCell>\n        <mxCell id=\"PxrWiQvhpTHwRh7bZ3xM-16\" value=\"Lose a life\" style=\"rounded=1;whiteSpace=wrap;html=1;\" parent=\"1\" vertex=\"1\">\n          <mxGeometry x=\"525\" y=\"580\" width=\"150\" height=\"60\" as=\"geometry\" />\n        </mxCell>\n        <mxCell id=\"PxrWiQvhpTHwRh7bZ3xM-30\" style=\"edgeStyle=orthogonalEdgeStyle;rounded=0;orthogonalLoop=1;jettySize=auto;html=1;entryX=0;entryY=0.5;entryDx=0;entryDy=0;\" parent=\"1\" source=\"PxrWiQvhpTHwRh7bZ3xM-27\" target=\"PxrWiQvhpTHwRh7bZ3xM-29\" edge=\"1\">\n          <mxGeometry relative=\"1\" as=\"geometry\" />\n        </mxCell>\n        <mxCell id=\"PxrWiQvhpTHwRh7bZ3xM-27\" value=\"You win!\" style=\"rounded=1;whiteSpace=wrap;html=1;\" parent=\"1\" vertex=\"1\">\n          <mxGeometry x=\"110\" y=\"870\" width=\"120\" height=\"60\" as=\"geometry\" />\n        </mxCell>\n        <mxCell id=\"PxrWiQvhpTHwRh7bZ3xM-31\" style=\"edgeStyle=orthogonalEdgeStyle;rounded=0;orthogonalLoop=1;jettySize=auto;html=1;entryX=1;entryY=0.5;entryDx=0;entryDy=0;\" parent=\"1\" source=\"PxrWiQvhpTHwRh7bZ3xM-28\" target=\"PxrWiQvhpTHwRh7bZ3xM-29\" edge=\"1\">\n          <mxGeometry relative=\"1\" as=\"geometry\" />\n        </mxCell>\n        <mxCell id=\"PxrWiQvhpTHwRh7bZ3xM-28\" value=\"You lose!\" style=\"rounded=1;whiteSpace=wrap;html=1;\" parent=\"1\" vertex=\"1\">\n          <mxGeometry x=\"540\" y=\"870\" width=\"120\" height=\"60\" as=\"geometry\" />\n        </mxCell>\n        <mxCell id=\"PxrWiQvhpTHwRh7bZ3xM-29\" value=\"GAME OVER\" style=\"rounded=1;whiteSpace=wrap;html=1;\" parent=\"1\" vertex=\"1\">\n          <mxGeometry x=\"340\" y=\"950\" width=\"120\" height=\"60\" as=\"geometry\" />\n        </mxCell>\n      </root>\n    </mxGraphModel>\n  </diagram>\n</mxfile>\n","colorizedLines":null,"stylingDirectives":null,"csv":null,"csvError":null,"dependabotInfo":{"showConfigurationBanner":null,"configFilePath":null,"networkDependabotPath":"/rosustefan/100-days-of-code-python-2023/network/updates","dismissConfigurationNoticePath":"/settings/dismiss-notice/dependabot_configuration_notice","configurationNoticeDismissed":false,"repoAlertsPath":"/rosustefan/100-days-of-code-python-2023/security/dependabot","repoSecurityAndAnalysisPath":"/rosustefan/100-days-of-code-python-2023/settings/security_analysis","repoOwnerIsOrg":false,"currentUserCanAdminRepo":true},"displayName":"hangman.drawio","displayUrl":"https://github.com/rosustefan/100-days-of-code-python-2023/blob/main/Day-7-Hangman/hangman.drawio?raw=true","headerInfo":{"blobSize":"8.31 KB","deleteInfo":{"deletePath":"https://github.com/rosustefan/100-days-of-code-python-2023/delete/main/Day-7-Hangman/hangman.drawio","deleteTooltip":"Delete this file"},"editInfo":{"editTooltip":"Edit this file"},"ghDesktopPath":"https://desktop.github.com","gitLfsPath":null,"onBranch":true,"shortPath":"7ae57db","siteNavLoginPath":"/login?return_to=https%3A%2F%2Fgithub.com%2Frosustefan%2F100-days-of-code-python-2023%2Fblob%2Fmain%2FDay-7-Hangman%2Fhangman.drawio","isCSV":false,"isRichtext":false,"toc":null,"lineInfo":{"truncatedLoc":"102","truncatedSloc":"102"},"mode":"file"},"image":false,"isCodeownersFile":null,"isValidLegacyIssueTemplate":false,"issueTemplateHelpUrl":"https://docs.github.com/articles/about-issue-and-pull-request-templates","issueTemplate":null,"discussionTemplate":null,"language":null,"large":false,"loggedIn":true,"newDiscussionPath":"/rosustefan/100-days-of-code-python-2023/discussions/new","newIssuePath":"/rosustefan/100-days-of-code-python-2023/issues/new","planSupportInfo":{"repoIsFork":null,"repoOwnedByCurrentUser":null,"requestFullPath":"/rosustefan/100-days-of-code-python-2023/blob/main/Day-7-Hangman/hangman.drawio","showFreeOrgGatedFeatureMessage":null,"showPlanSupportBanner":null,"upgradeDataAttributes":null,"upgradePath":null},"publishBannersInfo":{"dismissActionNoticePath":"/settings/dismiss-notice/publish_action_from_dockerfile","dismissStackNoticePath":"/settings/dismiss-notice/publish_stack_from_file","releasePath":"/rosustefan/100-days-of-code-python-2023/releases/new?marketplace=true","showPublishActionBanner":false,"showPublishStackBanner":false},"renderImageOrRaw":false,"richText":null,"renderedFileInfo":null,"tabSize":8,"topBannersInfo":{"overridingGlobalFundingFile":false,"globalPreferredFundingPath":null,"repoOwner":"rosustefan","repoName":"100-days-of-code-python-2023","showInvalidCitationWarning":false,"citationHelpUrl":"https://docs.github.com/en/github/creating-cloning-and-archiving-repositories/creating-a-repository-on-github/about-citation-files","showDependabotConfigurationBanner":null,"actionsOnboardingTip":null},"truncated":false,"viewable":true,"workflowRedirectUrl":null,"symbols":{"timedOut":false,"notAnalyzed":false,"symbols":[]}},"csrf_tokens":{"/rosustefan/100-days-of-code-python-2023/branches":{"post":"9kwq4Vl1HaXl4zjkj5NHFOkGVw0BgJ1LciezdtniHRWtixkDFc62okur8nPENu3FYwi1avd-nWGCsxsKX-aCsQ"}}},"title":"100-days-of-code-python-2023/hangman.drawio at main · rosustefan/100-days-of-code-python-2023","locale":"en"}